<svg width="17" height="16" viewBox="0 0 17 16" fill="none" xmlns="http://www.w3.org/2000/svg">
<path d="M8.87919 2C12.1747 2 14.8711 4.7 14.8711 8C14.8711 11.3 12.1747 14 8.87919 14C5.58366 14 2.88732 11.3 2.88732 8C2.88732 4.7 5.58366 2 8.87919 2ZM8.87919 1C5.0344 1 1.88867 4.15 1.88867 8C1.88867 11.85 5.0344 15 8.87919 15C12.724 15 15.8697 11.85 15.8697 8C15.8697 4.15 12.724 1 8.87919 1Z" fill="#ECF0F4"/>
<path d="M12.8729 7.5H9.37769V4H8.37905V7.5H4.88379V8.5H8.37905V12H9.37769V8.5H12.8729V7.5Z" fill="#ECF0F4"/>
</svg>
