<svg width="16" height="16" viewBox="0 0 16 16" fill="none" xmlns="http://www.w3.org/2000/svg">
<path fill-rule="evenodd" clip-rule="evenodd" d="M14.9795 8.00014C14.9795 7.86753 14.9269 7.74036 14.8332 7.64659C14.7396 7.55282 14.6126 7.50014 14.4802 7.50014H2.70315L5.84589 4.35414C5.93964 4.26026 5.99232 4.13292 5.99232 4.00014C5.99232 3.86737 5.93964 3.74003 5.84589 3.64614C5.75213 3.55226 5.62496 3.49951 5.49236 3.49951C5.35977 3.49951 5.2326 3.55226 5.13884 3.64614L1.14426 7.64614C1.09776 7.69259 1.06087 7.74776 1.0357 7.80851C1.01053 7.86926 0.99757 7.93438 0.99757 8.00014C0.99757 8.06591 1.01053 8.13103 1.0357 8.19178C1.06087 8.25252 1.09776 8.3077 1.14426 8.35414L5.13884 12.3541C5.2326 12.448 5.35977 12.5008 5.49236 12.5008C5.62496 12.5008 5.75213 12.448 5.84589 12.3541C5.93964 12.2603 5.99232 12.1329 5.99232 12.0001C5.99232 11.8674 5.93964 11.74 5.84589 11.6461L2.70315 8.50014H14.4802C14.6126 8.50014 14.7396 8.44746 14.8332 8.3537C14.9269 8.25993 14.9795 8.13275 14.9795 8.00014Z" fill="#00B17C"/>
</svg>
