<svg width="17" height="16" viewBox="0 0 17 16" fill="none" xmlns="http://www.w3.org/2000/svg">
<path fill-rule="evenodd" clip-rule="evenodd" d="M1.07129 8.00014C1.07129 7.86753 1.1239 7.74036 1.21754 7.64659C1.31118 7.55282 1.43818 7.50014 1.57061 7.50014H13.3476L10.2049 4.35414C10.1111 4.26026 10.0585 4.13292 10.0585 4.00014C10.0585 3.86737 10.1111 3.74003 10.2049 3.64614C10.2987 3.55226 10.4258 3.49951 10.5584 3.49951C10.691 3.49951 10.8182 3.55226 10.9119 3.64614L14.9065 7.64614C14.953 7.69259 14.9899 7.74776 15.0151 7.80851C15.0403 7.86925 15.0532 7.93438 15.0532 8.00014C15.0532 8.06591 15.0403 8.13103 15.0151 8.19178C14.9899 8.25252 14.953 8.3077 14.9065 8.35414L10.9119 12.3541C10.8182 12.448 10.691 12.5008 10.5584 12.5008C10.4258 12.5008 10.2987 12.448 10.2049 12.3541C10.1111 12.2603 10.0585 12.1329 10.0585 12.0001C10.0585 11.8674 10.1111 11.74 10.2049 11.6461L13.3476 8.50014H1.57061C1.43818 8.50014 1.31118 8.44747 1.21754 8.3537C1.1239 8.25993 1.07129 8.13275 1.07129 8.00014V8.00014Z" fill="#00B17C"/>
</svg>
